<svg width="46" height="46" viewBox="0 0 42 42" fill="none" xmlns="http://www.w3.org/2000/svg">
<g clip-path="url(#clip0_303_41)">
<path d="M21.0002 41.9722C32.3416 41.9722 41.5356 32.5826 41.5356 20.9999C41.5356 9.41721 32.3416 0.0275879 21.0002 0.0275879C9.65883 0.0275879 0.464844 9.41721 0.464844 20.9999C0.464844 32.5826 9.65883 41.9722 21.0002 41.9722Z" fill="white"/>
<path d="M21.0008 0.106689C9.40417 0.106689 0 9.48492 0 21.0554C0 30.3125 6.01759 38.1647 14.3609 40.9341C15.41 41.1276 15.7962 40.4799 15.7962 39.9263C15.7962 39.4266 15.7759 37.7761 15.7675 36.0263C9.92531 37.2932 8.69245 33.5547 8.69245 33.5547C7.73786 31.1336 6.35996 30.4892 6.35996 30.4892C4.45416 29.1886 6.50331 29.2156 6.50331 29.2156C8.61149 29.3636 9.72292 31.3742 9.72292 31.3742C11.5967 34.5777 14.6358 33.6506 15.8333 33.1156C16.0222 31.7612 16.5652 30.8375 17.1673 30.3142C12.5023 29.7842 7.59957 27.9873 7.59957 19.9601C7.59957 17.6736 8.41923 15.8044 9.7634 14.3372C9.54584 13.8106 8.82737 11.6806 9.96747 8.7951C9.96747 8.7951 11.7316 8.23146 15.7439 10.942C17.4186 10.4776 19.2148 10.2454 21.0008 10.237C22.7852 10.2454 24.5831 10.4776 26.2612 10.942C30.2701 8.23146 32.0308 8.7951 32.0308 8.7951C33.1743 11.6806 32.4542 13.8123 32.2366 14.3389C33.5825 15.8061 34.3971 17.6753 34.3971 19.9618C34.3971 28.0075 29.4842 29.7809 24.8074 30.2991C25.5613 30.9485 26.2325 32.2239 26.2325 34.1789C26.2325 36.982 26.2089 39.2382 26.2089 39.928C26.2089 40.4849 26.5867 41.1394 27.6509 40.9325C35.9908 38.1597 42 30.3092 42 21.0554C42 9.48492 32.5975 0.106689 21.0008 0.106689Z" fill="black"/>
</g>
<defs>
<clipPath id="clip0_303_41">
<rect width="42" height="42" fill="white"/>
</clipPath>
</defs>
</svg>
