<svg width="46" height="46" viewBox="0 0 46 46" fill="none" xmlns="http://www.w3.org/2000/svg">
<g clip-path="url(#clip0_303_44)">
<rect width="46" height="46" fill="white"/>
<path fill-rule="evenodd" clip-rule="evenodd" d="M23 0C35.696 0 46 10.304 46 23C46 35.696 35.696 46 23 46C10.304 46 0 35.696 0 23C0 10.304 10.304 0 23 0ZM34.5153 13.8307L12.19 13.7693L23.3527 22.632L34.5153 13.8307ZM20.7153 25.1007L10.9633 17.434V32.0007H35.0827V17.7407L26.036 25.1313C22.9693 27.6307 23.8893 27.5847 20.7153 25.1007ZM11.086 10.9787H35.144C37.0913 10.9787 38.6707 12.5733 38.6707 14.5053V31.372C38.6707 33.3193 37.076 34.8987 35.144 34.8987H11.086C9.13867 34.8987 7.55933 33.304 7.55933 31.372V14.5053C7.55933 12.558 9.154 10.9787 11.086 10.9787Z" fill="black"/>
</g>
<defs>
<clipPath id="clip0_303_44">
<rect width="46" height="46" fill="white"/>
</clipPath>
</defs>
</svg>
