<svg width="46" height="46" viewBox="0 0 43 43" fill="none" xmlns="http://www.w3.org/2000/svg">
<g clip-path="url(#clip0_303_39)">
<path d="M21.5 0.000244141C9.62578 0.000244141 0 9.62603 0 21.5002C0 33.3744 9.62578 43.0002 21.5 43.0002C33.3741 43.0002 43 33.3744 43 21.5002C42.9999 9.62603 33.374 0.000244141 21.5 0.000244141ZM15.7637 31.8944H11.0432V16.6437H15.7637V31.8944ZM13.381 14.6466C11.8393 14.6466 10.5895 13.3866 10.5895 11.8325C10.5895 10.2783 11.8395 9.01844 13.381 9.01844C14.9225 9.01844 16.1723 10.2783 16.1723 11.8325C16.1724 13.3867 14.9226 14.6466 13.381 14.6466ZM33.4539 31.8944H28.7563V23.8891C28.7563 21.6935 27.9223 20.4678 26.1861 20.4678C24.2966 20.4678 23.3095 21.7443 23.3095 23.8891V31.8944H18.782V16.6437H23.3095V18.6978C23.3095 18.6978 24.6714 16.1786 27.9052 16.1786C31.139 16.1786 33.454 18.1531 33.454 22.2379L33.4539 31.8944Z" fill="black"/>
</g>
<defs>
<clipPath id="clip0_303_39">
<rect width="43" height="43" fill="white"/>
</clipPath>
</defs>
</svg>
