<svg width="46" height="46" viewBox="0 0 46 46" fill="none" xmlns="http://www.w3.org/2000/svg">
<g clip-path="url(#clip0_305_46)">
<path fill-rule="evenodd" clip-rule="evenodd" d="M39.2256 6.68481C34.9207 2.37636 29.1956 0.00242163 23.0962 0C10.5284 0 0.29973 10.2247 0.2947 22.7926C0.293023 26.81 1.34302 30.7315 3.33825 34.1881L0.103516 46L12.1909 42.8303C15.5212 44.6462 19.2709 45.6032 23.0871 45.6048H23.0964C35.6629 45.6048 45.8925 35.3787 45.8976 22.8108C45.9 16.7202 43.5306 10.9933 39.2256 6.68481ZM23.0964 41.7549H23.0887C19.6881 41.7536 16.3526 40.8404 13.443 39.1142L12.7509 38.7036L5.57813 40.5846L7.49271 33.5934L7.04204 32.8766C5.14497 29.8602 4.14298 26.3737 4.14447 22.794C4.14863 12.3481 12.6503 3.84977 23.1039 3.84977C28.1658 3.85169 32.9242 5.82495 36.5023 9.40597C40.0804 12.987 42.0498 17.7471 42.0479 22.8093C42.0436 33.256 33.542 41.7549 23.0964 41.7549ZM33.4917 27.5658C32.922 27.2808 30.121 25.9028 29.5987 25.7128C29.0765 25.5227 28.6967 25.4277 28.3168 25.9979C27.9371 26.5681 26.8452 27.851 26.5128 28.231C26.1805 28.6112 25.8482 28.6587 25.2784 28.3736C24.7087 28.0885 22.873 27.4872 20.6969 25.5467C19.0033 24.0366 17.8598 22.1714 17.5274 21.6012C17.1951 21.031 17.4921 20.7227 17.7773 20.4388C18.0336 20.1836 18.347 19.7736 18.6319 19.441C18.9167 19.1084 19.0116 18.8709 19.2015 18.4908C19.3915 18.1107 19.2965 17.778 19.1541 17.493C19.0116 17.2079 17.8723 14.4045 17.3975 13.2642C16.9351 12.1536 16.4653 12.3039 16.1156 12.2865C15.7837 12.27 15.4035 12.2664 15.0237 12.2664C14.6439 12.2664 14.0267 12.409 13.5044 12.9791C12.9822 13.5493 11.5105 14.9272 11.5105 17.7305C11.5105 20.5339 13.5519 23.2421 13.8368 23.6222C14.1216 24.0024 17.8542 29.7552 23.5693 32.2222C24.9286 32.809 25.9898 33.1594 26.8172 33.4221C28.1821 33.8554 29.4241 33.7942 30.4058 33.6476C31.5004 33.4842 33.7765 32.2698 34.2513 30.9394C34.7261 29.609 34.7261 28.4687 34.5836 28.2311C34.4413 27.9935 34.0614 27.851 33.4917 27.5658Z" fill="black"/>
</g>
<defs>
<clipPath id="clip0_305_46">
<rect width="46" height="46" fill="white"/>
</clipPath>
</defs>
</svg>
